<svg width="150" height="150" viewBox="0 0 150 150" fill="none" xmlns="http://www.w3.org/2000/svg">
<rect width="150" height="150" rx="40" fill="url(#paint0_linear_1_984)"/>
<mask id="mask0_1_984" style="mask-type:alpha" maskUnits="userSpaceOnUse" x="0" y="0" width="150" height="150">
<rect width="150" height="150" rx="40" fill="white"/>
</mask>
<g mask="url(#mask0_1_984)">
<g filter="url(#filter0_f_1_984)">
<rect x="136.875" y="116.875" width="83.3333" height="9.58333" rx="4.79167" transform="rotate(-90 136.875 116.875)" fill="white"/>
</g>
<g filter="url(#filter1_f_1_984)">
<rect x="136.875" y="49.7917" width="16.25" height="9.58333" rx="4.79167" transform="rotate(-90 136.875 49.7917)" fill="white"/>
</g>
<g filter="url(#filter2_f_1_984)">
<rect x="3.54102" y="116.875" width="83.3333" height="9.58333" rx="4.79167" transform="rotate(-90 3.54102 116.875)" fill="white"/>
</g>
<g filter="url(#filter3_f_1_984)">
<rect x="3.54102" y="49.7917" width="16.25" height="9.58333" rx="4.79167" transform="rotate(-90 3.54102 49.7917)" fill="white"/>
</g>
<g filter="url(#filter4_f_1_984)">
<rect x="21.666" y="9.16675" width="106.667" height="12.0833" rx="6.04167" fill="white"/>
</g>
</g>
<g clip-path="url(#clip0_1_984)">
<path d="M100.257 41.1045L69.2738 33.8245C68.3571 33.6378 67.4405 33.8245 66.7071 34.3845C65.9738 34.9445 65.6071 35.8779 65.6071 36.8112V41.0112H50.1155C48.4655 41.0112 47.0905 42.4112 47.0905 44.0912V112.131C47.0905 113.811 48.4655 115.211 50.1155 115.211H65.5155V119.411C65.5155 120.345 65.9738 121.185 66.6155 121.838C67.1655 122.305 67.8071 122.491 68.4488 122.491C68.6321 122.491 68.9071 122.491 69.0905 122.398L100.074 115.118C101.449 114.838 102.365 113.531 102.365 112.131V44.0912C102.549 42.5979 101.632 41.3845 100.257 41.1045ZM65.5155 109.051H53.1405V47.0779H65.5155V109.051ZM76.1488 81.3312C74.4071 81.3312 72.9405 79.8379 72.9405 78.0645C72.9405 76.2912 74.4071 74.7979 76.1488 74.7979C77.8905 74.7979 79.3571 76.2912 79.3571 78.0645C79.3571 79.8379 77.8905 81.3312 76.1488 81.3312Z" fill="url(#paint1_linear_1_984)"/>
</g>
<defs>
<filter id="filter0_f_1_984" x="98.8186" y="-4.51456" width="85.6952" height="159.445" filterUnits="userSpaceOnUse" color-interpolation-filters="sRGB">
<feFlood flood-opacity="0" result="BackgroundImageFix"/>
<feBlend mode="normal" in="SourceGraphic" in2="BackgroundImageFix" result="shape"/>
<feGaussianBlur stdDeviation="19.028" result="effect1_foregroundBlur_1_984"/>
</filter>
<filter id="filter1_f_1_984" x="98.8186" y="-4.5142" width="85.6952" height="92.3619" filterUnits="userSpaceOnUse" color-interpolation-filters="sRGB">
<feFlood flood-opacity="0" result="BackgroundImageFix"/>
<feBlend mode="normal" in="SourceGraphic" in2="BackgroundImageFix" result="shape"/>
<feGaussianBlur stdDeviation="19.028" result="effect1_foregroundBlur_1_984"/>
</filter>
<filter id="filter2_f_1_984" x="-34.5149" y="-4.51456" width="85.6952" height="159.445" filterUnits="userSpaceOnUse" color-interpolation-filters="sRGB">
<feFlood flood-opacity="0" result="BackgroundImageFix"/>
<feBlend mode="normal" in="SourceGraphic" in2="BackgroundImageFix" result="shape"/>
<feGaussianBlur stdDeviation="19.028" result="effect1_foregroundBlur_1_984"/>
</filter>
<filter id="filter3_f_1_984" x="-34.5149" y="-4.5142" width="85.6952" height="92.3619" filterUnits="userSpaceOnUse" color-interpolation-filters="sRGB">
<feFlood flood-opacity="0" result="BackgroundImageFix"/>
<feBlend mode="normal" in="SourceGraphic" in2="BackgroundImageFix" result="shape"/>
<feGaussianBlur stdDeviation="19.028" result="effect1_foregroundBlur_1_984"/>
</filter>
<filter id="filter4_f_1_984" x="-16.39" y="-28.8892" width="182.779" height="88.1953" filterUnits="userSpaceOnUse" color-interpolation-filters="sRGB">
<feFlood flood-opacity="0" result="BackgroundImageFix"/>
<feBlend mode="normal" in="SourceGraphic" in2="BackgroundImageFix" result="shape"/>
<feGaussianBlur stdDeviation="19.028" result="effect1_foregroundBlur_1_984"/>
</filter>
<linearGradient id="paint0_linear_1_984" x1="0" y1="0" x2="0" y2="150" gradientUnits="userSpaceOnUse">
<stop stop-color="white"/>
<stop offset="1" stop-color="#F0F0F0"/>
</linearGradient>
<linearGradient id="paint1_linear_1_984" x1="74.7396" y1="33.7545" x2="74.7396" y2="122.491" gradientUnits="userSpaceOnUse">
<stop stop-color="#D36500"/>
<stop offset="1" stop-color="#FF9900"/>
</linearGradient>
<clipPath id="clip0_1_984">
<rect width="91.6667" height="116.667" fill="white" transform="translate(29.0322 31.3978)"/>
</clipPath>
</defs>
</svg>
