<svg width="150" height="150" viewBox="0 0 150 150" fill="none" xmlns="http://www.w3.org/2000/svg">
<rect width="150" height="150" rx="40" fill="url(#paint0_linear_1_1005)"/>
<mask id="mask0_1_1005" style="mask-type:alpha" maskUnits="userSpaceOnUse" x="0" y="0" width="150" height="150">
<rect width="150" height="150" rx="40" fill="white"/>
</mask>
<g mask="url(#mask0_1_1005)">
<g filter="url(#filter0_f_1_1005)">
<rect x="136.875" y="116.875" width="83.3333" height="9.58333" rx="4.79167" transform="rotate(-90 136.875 116.875)" fill="white"/>
</g>
<g filter="url(#filter1_f_1_1005)">
<rect x="136.875" y="49.7919" width="16.25" height="9.58333" rx="4.79167" transform="rotate(-90 136.875 49.7919)" fill="white"/>
</g>
<g filter="url(#filter2_f_1_1005)">
<rect x="3.5415" y="116.875" width="83.3333" height="9.58333" rx="4.79167" transform="rotate(-90 3.5415 116.875)" fill="white"/>
</g>
<g filter="url(#filter3_f_1_1005)">
<rect x="3.5415" y="49.7919" width="16.25" height="9.58333" rx="4.79167" transform="rotate(-90 3.5415 49.7919)" fill="white"/>
</g>
<g filter="url(#filter4_f_1_1005)">
<rect x="21.6661" y="9.16675" width="106.667" height="12.0833" rx="6.04167" fill="white"/>
</g>
</g>
<path fill-rule="evenodd" clip-rule="evenodd" d="M64.8351 39.7165C64.6674 38.005 63.1895 36.6665 61.3911 36.6665C59.4803 36.6665 57.9313 38.1775 57.9313 40.0415V49.1464C57.9313 52.1261 55.5158 54.5416 52.5361 54.5416V54.5416L52.2116 54.5569C50.5028 54.7187 49.1665 56.1452 49.1665 57.8809V84.5952L49.1763 85.1692C49.4816 94.1246 56.9034 101.292 66.0143 101.292H66.2704C69.308 101.292 71.7705 103.754 71.7705 106.792V106.792L71.7819 107.328C72.0611 113.914 77.4542 119.167 84.0662 119.167H97.4796L97.8026 119.151C99.5031 118.988 100.833 117.546 100.833 115.792C100.833 113.928 99.3317 112.417 97.4796 112.417H84.0662L83.6835 112.404C80.7753 112.206 78.4772 109.769 78.4772 106.792V106.792C78.4772 103.754 80.9477 101.292 83.9853 101.292V101.292L84.5645 101.282C93.6012 100.979 100.833 93.6243 100.833 84.5952V57.8809L100.818 57.5593C100.654 55.866 99.2151 54.5416 97.4636 54.5416V54.5416C94.4839 54.5416 92.0684 52.1261 92.0684 49.1465V40.0415L92.0526 39.7165C91.885 38.005 90.407 36.6665 88.6086 36.6665C86.6978 36.6665 85.1488 38.1775 85.1488 40.0415V44.3927C85.1488 49.9978 80.605 54.5416 74.9999 54.5416V54.5416C69.3948 54.5416 64.8509 49.9978 64.8509 44.3927V40.0415L64.8351 39.7165Z" fill="url(#paint1_linear_1_1005)"/>
<defs>
<filter id="filter0_f_1_1005" x="98.8186" y="-4.51456" width="85.6952" height="159.445" filterUnits="userSpaceOnUse" color-interpolation-filters="sRGB">
<feFlood flood-opacity="0" result="BackgroundImageFix"/>
<feBlend mode="normal" in="SourceGraphic" in2="BackgroundImageFix" result="shape"/>
<feGaussianBlur stdDeviation="19.028" result="effect1_foregroundBlur_1_1005"/>
</filter>
<filter id="filter1_f_1_1005" x="98.8186" y="-4.51408" width="85.6952" height="92.3619" filterUnits="userSpaceOnUse" color-interpolation-filters="sRGB">
<feFlood flood-opacity="0" result="BackgroundImageFix"/>
<feBlend mode="normal" in="SourceGraphic" in2="BackgroundImageFix" result="shape"/>
<feGaussianBlur stdDeviation="19.028" result="effect1_foregroundBlur_1_1005"/>
</filter>
<filter id="filter2_f_1_1005" x="-34.5144" y="-4.51456" width="85.6952" height="159.445" filterUnits="userSpaceOnUse" color-interpolation-filters="sRGB">
<feFlood flood-opacity="0" result="BackgroundImageFix"/>
<feBlend mode="normal" in="SourceGraphic" in2="BackgroundImageFix" result="shape"/>
<feGaussianBlur stdDeviation="19.028" result="effect1_foregroundBlur_1_1005"/>
</filter>
<filter id="filter3_f_1_1005" x="-34.5144" y="-4.51408" width="85.6952" height="92.3619" filterUnits="userSpaceOnUse" color-interpolation-filters="sRGB">
<feFlood flood-opacity="0" result="BackgroundImageFix"/>
<feBlend mode="normal" in="SourceGraphic" in2="BackgroundImageFix" result="shape"/>
<feGaussianBlur stdDeviation="19.028" result="effect1_foregroundBlur_1_1005"/>
</filter>
<filter id="filter4_f_1_1005" x="-16.3898" y="-28.8892" width="182.779" height="88.1953" filterUnits="userSpaceOnUse" color-interpolation-filters="sRGB">
<feFlood flood-opacity="0" result="BackgroundImageFix"/>
<feBlend mode="normal" in="SourceGraphic" in2="BackgroundImageFix" result="shape"/>
<feGaussianBlur stdDeviation="19.028" result="effect1_foregroundBlur_1_1005"/>
</filter>
<linearGradient id="paint0_linear_1_1005" x1="0" y1="0" x2="0" y2="150" gradientUnits="userSpaceOnUse">
<stop stop-color="#FCFCFC"/>
<stop offset="1" stop-color="#F2F2F2"/>
</linearGradient>
<linearGradient id="paint1_linear_1_1005" x1="49.1665" y1="36.6665" x2="49.1665" y2="119.167" gradientUnits="userSpaceOnUse">
<stop stop-color="#53B9D9"/>
<stop offset="0.999863" stop-color="#8DD4EA"/>
</linearGradient>
</defs>
</svg>
