<svg width="150" height="150" viewBox="0 0 150 150" fill="none" xmlns="http://www.w3.org/2000/svg">
<rect width="150" height="150" rx="40" fill="url(#paint0_linear_1_1056)"/>
<mask id="mask0_1_1056" style="mask-type:alpha" maskUnits="userSpaceOnUse" x="0" y="0" width="150" height="150">
<rect width="150" height="150" rx="40" fill="white"/>
</mask>
<g mask="url(#mask0_1_1056)">
<g filter="url(#filter0_f_1_1056)">
<rect x="136.875" y="116.875" width="83.3333" height="9.58333" rx="4.79167" transform="rotate(-90 136.875 116.875)" fill="white"/>
</g>
<g filter="url(#filter1_f_1_1056)">
<rect x="136.875" y="49.792" width="16.25" height="9.58333" rx="4.79167" transform="rotate(-90 136.875 49.792)" fill="white"/>
</g>
<g filter="url(#filter2_f_1_1056)">
<rect x="3.54138" y="116.875" width="83.3333" height="9.58333" rx="4.79167" transform="rotate(-90 3.54138 116.875)" fill="white"/>
</g>
<g filter="url(#filter3_f_1_1056)">
<rect x="3.54138" y="49.792" width="16.25" height="9.58333" rx="4.79167" transform="rotate(-90 3.54138 49.792)" fill="white"/>
</g>
<g filter="url(#filter4_f_1_1056)">
<rect x="21.6661" y="9.16699" width="106.667" height="12.0833" rx="6.04167" fill="white"/>
</g>
</g>
<g clip-path="url(#clip0_1_1056)">
<path d="M75 74.4803L80.2083 86.7512C80.2083 88.1509 79.6596 89.4933 78.6828 90.4831C77.7061 91.4729 76.3813 92.0289 75 92.0289C73.6186 92.0289 72.2939 91.4729 71.3171 90.4831C70.3404 89.4933 69.7916 88.1509 69.7916 86.7512L75 74.4803ZM108.854 41.3887H41.1458C40.4551 41.3887 39.7927 41.6667 39.3044 42.1616C38.816 42.6565 38.5416 43.3277 38.5416 44.0276V51.9442C38.5416 52.6441 38.816 53.3153 39.3044 53.8102C39.7927 54.3051 40.4551 54.5831 41.1458 54.5831H108.854C109.545 54.5831 110.207 54.3051 110.696 53.8102C111.184 53.3153 111.458 52.6441 111.458 51.9442V44.0276C111.458 43.3277 111.184 42.6565 110.696 42.1616C110.207 41.6667 109.545 41.3887 108.854 41.3887V41.3887ZM106.25 96.8053V57.222H75C81.216 57.222 87.1774 59.7242 91.5728 64.1782C95.9682 68.6322 98.4375 74.6731 98.4375 80.972V96.8053H106.25ZM75 62.4998C70.1653 62.4998 65.5286 64.446 62.11 67.9102C58.6914 71.3744 56.7708 76.0729 56.7708 80.972V96.8053H75C72.2373 96.8053 69.5878 95.6932 67.6343 93.7137C65.6808 91.7341 64.5833 89.0493 64.5833 86.2498C64.5872 85.8878 64.6578 85.5298 64.7916 85.1942L72.6041 66.722C72.8042 66.246 73.138 65.8401 73.564 65.5548C73.99 65.2695 74.4893 65.1173 75 65.1173C75.5106 65.1173 76.0099 65.2695 76.4359 65.5548C76.8619 65.8401 77.1957 66.246 77.3958 66.722L85.2083 85.1942C85.3421 85.5298 85.4127 85.8878 85.4166 86.2498C85.4166 89.0493 84.3192 91.7341 82.3657 93.7137C80.4121 95.6932 77.7626 96.8053 75 96.8053H93.2291V80.972C93.2291 76.0729 91.3086 71.3744 87.8899 67.9102C84.4713 64.446 79.8346 62.4998 75 62.4998V62.4998ZM43.75 96.8053H51.5625V80.972C51.5625 74.6731 54.0318 68.6322 58.4271 64.1782C62.8225 59.7242 68.7839 57.222 75 57.222H43.75V96.8053ZM108.854 99.4442H41.1458C40.4551 99.4442 39.7927 99.7222 39.3044 100.217C38.816 100.712 38.5416 101.383 38.5416 102.083V112.639C38.5416 113.339 38.816 114.01 39.3044 114.505C39.7927 115 40.4551 115.278 41.1458 115.278H108.854C109.545 115.278 110.207 115 110.696 114.505C111.184 114.01 111.458 113.339 111.458 112.639V102.083C111.458 101.383 111.184 100.712 110.696 100.217C110.207 99.7222 109.545 99.4442 108.854 99.4442Z" fill="url(#paint1_linear_1_1056)"/>
</g>
<defs>
<filter id="filter0_f_1_1056" x="98.8187" y="-4.51444" width="85.6952" height="159.445" filterUnits="userSpaceOnUse" color-interpolation-filters="sRGB">
<feFlood flood-opacity="0" result="BackgroundImageFix"/>
<feBlend mode="normal" in="SourceGraphic" in2="BackgroundImageFix" result="shape"/>
<feGaussianBlur stdDeviation="19.028" result="effect1_foregroundBlur_1_1056"/>
</filter>
<filter id="filter1_f_1_1056" x="98.8187" y="-4.51395" width="85.6952" height="92.3619" filterUnits="userSpaceOnUse" color-interpolation-filters="sRGB">
<feFlood flood-opacity="0" result="BackgroundImageFix"/>
<feBlend mode="normal" in="SourceGraphic" in2="BackgroundImageFix" result="shape"/>
<feGaussianBlur stdDeviation="19.028" result="effect1_foregroundBlur_1_1056"/>
</filter>
<filter id="filter2_f_1_1056" x="-34.5146" y="-4.51444" width="85.6952" height="159.445" filterUnits="userSpaceOnUse" color-interpolation-filters="sRGB">
<feFlood flood-opacity="0" result="BackgroundImageFix"/>
<feBlend mode="normal" in="SourceGraphic" in2="BackgroundImageFix" result="shape"/>
<feGaussianBlur stdDeviation="19.028" result="effect1_foregroundBlur_1_1056"/>
</filter>
<filter id="filter3_f_1_1056" x="-34.5146" y="-4.51395" width="85.6952" height="92.3619" filterUnits="userSpaceOnUse" color-interpolation-filters="sRGB">
<feFlood flood-opacity="0" result="BackgroundImageFix"/>
<feBlend mode="normal" in="SourceGraphic" in2="BackgroundImageFix" result="shape"/>
<feGaussianBlur stdDeviation="19.028" result="effect1_foregroundBlur_1_1056"/>
</filter>
<filter id="filter4_f_1_1056" x="-16.3898" y="-28.889" width="182.779" height="88.1953" filterUnits="userSpaceOnUse" color-interpolation-filters="sRGB">
<feFlood flood-opacity="0" result="BackgroundImageFix"/>
<feBlend mode="normal" in="SourceGraphic" in2="BackgroundImageFix" result="shape"/>
<feGaussianBlur stdDeviation="19.028" result="effect1_foregroundBlur_1_1056"/>
</filter>
<linearGradient id="paint0_linear_1_1056" x1="0" y1="0" x2="0" y2="150" gradientUnits="userSpaceOnUse">
<stop stop-color="#F7F7F7"/>
<stop offset="1" stop-color="#F3F3F3"/>
</linearGradient>
<linearGradient id="paint1_linear_1_1056" x1="75" y1="41.3887" x2="75" y2="115.278" gradientUnits="userSpaceOnUse">
<stop stop-color="#FF002E"/>
<stop offset="1" stop-color="#FF3E3E"/>
</linearGradient>
<clipPath id="clip0_1_1056">
<rect x="33.3333" y="36.1111" width="83.3333" height="105.556" rx="40" fill="white"/>
</clipPath>
</defs>
</svg>
