<svg width="150" height="150" viewBox="0 0 150 150" fill="none" xmlns="http://www.w3.org/2000/svg">
<rect width="150" height="150" rx="40" fill="url(#paint0_linear_1_1039)"/>
<mask id="mask0_1_1039" style="mask-type:alpha" maskUnits="userSpaceOnUse" x="0" y="0" width="150" height="150">
<rect width="150" height="150" rx="40" fill="white"/>
</mask>
<g mask="url(#mask0_1_1039)">
<g filter="url(#filter0_f_1_1039)">
<rect x="136.875" y="116.875" width="83.3333" height="9.58333" rx="4.79167" transform="rotate(-90 136.875 116.875)" fill="white"/>
</g>
<g filter="url(#filter1_f_1_1039)">
<rect x="136.875" y="49.7919" width="16.25" height="9.58333" rx="4.79167" transform="rotate(-90 136.875 49.7919)" fill="white"/>
</g>
<g filter="url(#filter2_f_1_1039)">
<rect x="3.54126" y="116.875" width="83.3333" height="9.58333" rx="4.79167" transform="rotate(-90 3.54126 116.875)" fill="white"/>
</g>
<g filter="url(#filter3_f_1_1039)">
<rect x="3.54126" y="49.7919" width="16.25" height="9.58333" rx="4.79167" transform="rotate(-90 3.54126 49.7919)" fill="white"/>
</g>
<g filter="url(#filter4_f_1_1039)">
<rect x="21.6661" y="9.16675" width="106.667" height="12.0833" rx="6.04167" fill="white"/>
</g>
</g>
<g clip-path="url(#clip0_1_1039)">
<path d="M62.2673 106.666H87.7326C86.973 109.491 85.3147 111.984 83.0136 113.762C80.7125 115.54 77.8964 116.503 74.9999 116.503C72.1034 116.503 69.2874 115.54 66.9863 113.762C64.6852 111.984 63.0269 109.491 62.2673 106.666V106.666ZM104.391 98.633L91.493 69.2997V53.333C91.493 52.449 91.1454 51.6011 90.5268 50.976C89.9082 50.3509 89.0692 49.9997 88.1944 49.9997H78.2985V26.6663C78.2985 25.7823 77.951 24.9344 77.3324 24.3093C76.7138 23.6842 75.8748 23.333 74.9999 23.333C74.1251 23.333 73.2861 23.6842 72.6675 24.3093C72.0488 24.9344 71.7013 25.7823 71.7013 26.6663V49.9997H61.8055C60.9306 49.9997 60.0916 50.3509 59.473 50.976C58.8544 51.6011 58.5069 52.449 58.5069 53.333V69.2997L45.6093 98.633C45.3837 99.1401 45.2873 99.6962 45.3287 100.251C45.3701 100.805 45.548 101.34 45.8464 101.807C46.1447 102.274 46.554 102.659 47.0368 102.925C47.5197 103.192 48.0609 103.332 48.611 103.333H101.389C101.939 103.332 102.48 103.192 102.963 102.925C103.446 102.659 103.855 102.274 104.153 101.807C104.452 101.34 104.63 100.805 104.671 100.251C104.713 99.6962 104.616 99.1401 104.391 98.633Z" fill="url(#paint1_linear_1_1039)"/>
</g>
<defs>
<filter id="filter0_f_1_1039" x="98.8188" y="-4.51456" width="85.6952" height="159.445" filterUnits="userSpaceOnUse" color-interpolation-filters="sRGB">
<feFlood flood-opacity="0" result="BackgroundImageFix"/>
<feBlend mode="normal" in="SourceGraphic" in2="BackgroundImageFix" result="shape"/>
<feGaussianBlur stdDeviation="19.028" result="effect1_foregroundBlur_1_1039"/>
</filter>
<filter id="filter1_f_1_1039" x="98.8188" y="-4.51408" width="85.6952" height="92.3619" filterUnits="userSpaceOnUse" color-interpolation-filters="sRGB">
<feFlood flood-opacity="0" result="BackgroundImageFix"/>
<feBlend mode="normal" in="SourceGraphic" in2="BackgroundImageFix" result="shape"/>
<feGaussianBlur stdDeviation="19.028" result="effect1_foregroundBlur_1_1039"/>
</filter>
<filter id="filter2_f_1_1039" x="-34.5147" y="-4.51456" width="85.6952" height="159.445" filterUnits="userSpaceOnUse" color-interpolation-filters="sRGB">
<feFlood flood-opacity="0" result="BackgroundImageFix"/>
<feBlend mode="normal" in="SourceGraphic" in2="BackgroundImageFix" result="shape"/>
<feGaussianBlur stdDeviation="19.028" result="effect1_foregroundBlur_1_1039"/>
</filter>
<filter id="filter3_f_1_1039" x="-34.5147" y="-4.51408" width="85.6952" height="92.3619" filterUnits="userSpaceOnUse" color-interpolation-filters="sRGB">
<feFlood flood-opacity="0" result="BackgroundImageFix"/>
<feBlend mode="normal" in="SourceGraphic" in2="BackgroundImageFix" result="shape"/>
<feGaussianBlur stdDeviation="19.028" result="effect1_foregroundBlur_1_1039"/>
</filter>
<filter id="filter4_f_1_1039" x="-16.3898" y="-28.8892" width="182.779" height="88.1953" filterUnits="userSpaceOnUse" color-interpolation-filters="sRGB">
<feFlood flood-opacity="0" result="BackgroundImageFix"/>
<feBlend mode="normal" in="SourceGraphic" in2="BackgroundImageFix" result="shape"/>
<feGaussianBlur stdDeviation="19.028" result="effect1_foregroundBlur_1_1039"/>
</filter>
<linearGradient id="paint0_linear_1_1039" x1="0" y1="0" x2="0" y2="150" gradientUnits="userSpaceOnUse">
<stop stop-color="#FDFDFD"/>
<stop offset="1" stop-color="#F1F1F1"/>
</linearGradient>
<linearGradient id="paint1_linear_1_1039" x1="74.9999" y1="23.333" x2="74.9999" y2="116.503" gradientUnits="userSpaceOnUse">
<stop stop-color="#FFB800"/>
<stop offset="1" stop-color="#E3DE67"/>
</linearGradient>
<clipPath id="clip0_1_1039">
<rect x="22.2222" y="16.6666" width="105.556" height="133.333" rx="40" fill="white"/>
</clipPath>
</defs>
</svg>
