<svg width="64" height="43" viewBox="0 0 64 43" fill="none" xmlns="http://www.w3.org/2000/svg">
<path d="M19.9801 33.5451C16.8077 30.2916 15.2514 26.3013 15.2514 21.6972C15.2514 17.0317 16.8676 13.0414 20.0999 9.78784" stroke="white" stroke-width="6"/>
<path d="M11.1809 40.8177C6.10501 35.6386 3.61495 29.2867 3.61495 21.9577C3.61495 14.531 6.20078 8.17918 11.3724 3" stroke="white" stroke-width="6"/>
<path d="M30.922 27.6226C29.8361 27.6226 28.8322 27.353 27.9103 26.814C26.9962 26.2749 26.2697 25.5483 25.7306 24.6343C25.1915 23.7124 24.922 22.7085 24.922 21.6226V16.8296L29.715 15.646V21.6226C29.715 21.9585 29.8322 22.2437 30.0665 22.478C30.3009 22.7124 30.5861 22.8296 30.922 22.8296H42.8986C43.2267 22.8296 43.504 22.7124 43.7306 22.478C43.965 22.2437 44.0822 21.9585 44.0822 21.6226V16.8296L48.8868 15.646V21.6226C48.8868 22.7085 48.6173 23.7124 48.0782 24.6343C47.5392 25.5483 46.8087 26.2749 45.8868 26.814C44.9728 27.353 43.9767 27.6226 42.8986 27.6226H30.922ZM35.0822 30.0015H38.6915V33.5757H35.0822V30.0015Z" fill="white"/>
</svg>
