<?xml version="1.0" encoding="utf-8"?>
<!-- Generator: Adobe Illustrator 24.3.0, SVG Export Plug-In . SVG Version: 6.00 Build 0)  -->
<svg version="1.1" id="Layer_1" xmlns="http://www.w3.org/2000/svg" xmlns:xlink="http://www.w3.org/1999/xlink" x="0px" y="0px"
	 viewBox="0 0 500 500" style="enable-background:new 0 0 500 500;" xml:space="preserve">
<style type="text/css">
	.st0{fill:#A0A2A7;}
</style>
<g>
	<g>
		<path class="st0" d="M196.8,265.3c0,0.8,0.4,1.3,1.2,1.3h8.1c0.9,0,1.4-0.4,1.4-1.3l2.5-22.1l6.4,22.2c0,0.2,0.2,0.4,0.4,0.7
			c0.3,0.3,0.5,0.4,0.7,0.4h7.5c0.2,0,0.5-0.1,0.7-0.4c0.2-0.3,0.4-0.5,0.4-0.7l6.4-22.3l2.5,22.1c0,0.8,0.5,1.3,1.4,1.3h8.1
			c0.8,0,1.3-0.4,1.3-1.1v-0.1c-0.7-6.7-1.3-13.4-2-20c-0.7-6.6-1.4-13.3-2-20c0-0.4-0.2-0.7-0.5-0.9c-0.3-0.2-0.6-0.4-0.9-0.4h-9.8
			c-0.7,0-1.2,0.4-1.5,1.1l-7.8,26l-7.8-26c-0.2-0.7-0.7-1.1-1.4-1.1h-9.9c-0.4,0-0.7,0.1-1,0.4c-0.2,0.2-0.4,0.5-0.4,0.9
			L196.8,265.3z"/>
		<path class="st0" d="M287.8,231.3c-0.1-0.3-0.3-0.5-0.6-0.7c-0.2-0.2-0.5-0.3-0.7-0.4c-0.3-0.1-0.5-0.1-0.7-0.1h-4.3
			c-0.4,0-0.7,0-0.9,0.1c-0.2,0-0.4,0.1-0.5,0.3c-0.1,0.1-0.3,0.4-0.4,0.7c-0.1,0.3-0.3,0.7-0.5,1.2l-0.8,2.6
			c-0.5-0.7-1.1-1.4-1.8-2.1c-0.7-0.6-1.5-1.2-2.3-1.6c-0.8-0.5-1.8-0.8-2.8-1.1c-1-0.3-2.1-0.4-3.3-0.4c-2.6,0-5,0.5-7.3,1.4
			c-2.3,1-4.2,2.3-5.9,4c-1.7,1.7-3,3.7-4,6s-1.5,4.7-1.5,7.4c0,1.8,0.2,3.4,0.7,5c0.4,1.6,1.1,3.1,1.9,4.5c0.8,1.4,1.8,2.7,2.9,3.8
			c1.1,1.1,2.4,2.1,3.8,2.9c1.4,0.8,2.9,1.4,4.5,1.9c1.6,0.4,3.3,0.7,5,0.7c1,0,1.9-0.1,2.8-0.4c0.9-0.2,1.8-0.6,2.5-0.9
			c0.8-0.4,1.5-0.8,2.2-1.3c0.7-0.5,1.2-1,1.8-1.5l0.4,1.3c0.1,0.3,0.2,0.6,0.3,0.9c0.1,0.3,0.2,0.5,0.4,0.7
			c0.2,0.2,0.4,0.3,0.6,0.4c0.2,0.1,0.6,0.2,1,0.2h5.6c0.2,0,0.5,0,0.7-0.1c0.3-0.1,0.5-0.2,0.7-0.4c0.3-0.2,0.5-0.4,0.6-0.7
			c0.1-0.3,0.2-0.6,0.2-0.9v-32.2C287.9,231.8,287.9,231.5,287.8,231.3z M276.3,251.9c-0.5,1.1-1.1,2-1.9,2.8
			c-0.8,0.8-1.8,1.4-2.9,1.9c-1.1,0.5-2.3,0.7-3.6,0.7c-1.2,0-2.4-0.2-3.4-0.7c-1-0.5-1.9-1.1-2.6-1.9c-0.7-0.8-1.3-1.7-1.7-2.8
			c-0.4-1.1-0.6-2.3-0.6-3.5c0-1.2,0.2-2.4,0.6-3.5c0.4-1.1,0.9-2.1,1.7-2.9c0.7-0.8,1.6-1.5,2.6-2c1-0.5,2.2-0.7,3.4-0.7
			c1.3,0,2.5,0.2,3.6,0.7c1.1,0.5,2,1.1,2.9,2c0.8,0.8,1.4,1.8,1.9,2.9c0.5,1.1,0.7,2.3,0.7,3.5C277,249.7,276.8,250.8,276.3,251.9z
			"/>
		<path class="st0" d="M331.7,231.3c-0.1-0.3-0.3-0.5-0.5-0.7c-0.2-0.2-0.5-0.3-0.7-0.4c-0.3-0.1-0.5-0.1-0.8-0.1h-4.3
			c-0.4,0-0.7,0-0.9,0.1c-0.2,0.1-0.4,0.2-0.6,0.4c-0.2,0.2-0.3,0.4-0.4,0.7c-0.1,0.3-0.2,0.6-0.3,0.9l-0.8,2.5
			c-0.6-0.7-1.2-1.4-1.9-2c-0.7-0.6-1.4-1.2-2.2-1.6c-0.8-0.5-1.7-0.8-2.7-1.1c-1-0.3-2-0.4-3.2-0.4c-2.6,0-5,0.5-7.2,1.4
			c-2.2,1-4.1,2.3-5.7,4c-1.6,1.7-2.9,3.7-3.7,6c-0.9,2.3-1.3,4.7-1.3,7.3c0,2.6,0.4,5,1.3,7.2c0.9,2.2,2.1,4.1,3.7,5.7
			c1.6,1.6,3.5,2.8,5.7,3.7c2.2,0.9,4.6,1.3,7.2,1.3c1.2,0,2.2-0.1,3.1-0.4c0.9-0.3,1.7-0.6,2.4-1.1c0.7-0.4,1.3-1,1.9-1.5
			c0.6-0.6,1.1-1.2,1.7-1.7v0.4c0,0.1,0,0.2,0,0.2c0,0.1,0,0.1,0,0.2v0.4c0,0.5,0,1-0.1,1.4c0,0.5-0.1,0.9-0.3,1.3
			c-0.2,0.8-0.7,1.6-1.3,2.2c-0.6,0.6-1.3,1.2-2.1,1.6c-0.8,0.4-1.7,0.8-2.6,1c-0.9,0.2-1.8,0.3-2.7,0.3c-0.5,0-1.1,0-1.7-0.1
			c-0.6,0-1.3-0.2-1.9-0.3c-0.7-0.2-1.3-0.4-1.9-0.7c-0.6-0.3-1.2-0.6-1.6-1.1c-0.6-0.5-1.2-0.7-1.6-0.7c-0.3,0-0.5,0.1-0.7,0.2
			c-0.2,0.1-0.5,0.4-0.7,0.6l-2.7,3.7c-0.4,0.5-0.5,1-0.5,1.5c0,0.4,0.1,0.7,0.3,1c0.2,0.3,0.4,0.6,0.7,0.8c0.8,0.7,1.8,1.4,2.9,2
			c1.1,0.6,2.2,1,3.4,1.4c1.2,0.4,2.4,0.6,3.5,0.8c1.2,0.2,2.3,0.3,3.3,0.3c2.7,0,5.1-0.4,7.4-1.3c2.3-0.8,4.3-2.1,6-3.7
			c1.7-1.6,3-3.6,4-5.9c1-2.3,1.5-5,1.5-8v-29.1C331.9,231.8,331.8,231.5,331.7,231.3z M322,248.8c-0.1,1.2-0.3,2.3-0.8,3.3
			c-0.5,1-1.1,1.9-1.9,2.7c-0.8,0.8-1.7,1.4-2.8,1.8c-1.1,0.4-2.2,0.6-3.4,0.6c-1.2,0-2.4-0.2-3.4-0.7c-1-0.5-1.9-1.1-2.6-1.9
			c-0.7-0.8-1.3-1.8-1.7-2.8c-0.4-1.1-0.6-2.3-0.6-3.6c0-1.2,0.2-2.4,0.6-3.5c0.4-1.1,0.9-2.1,1.7-2.9c0.7-0.8,1.6-1.5,2.6-2
			c1-0.5,2.1-0.7,3.4-0.7c1.2,0,2.4,0.2,3.4,0.7c1.1,0.5,2,1.1,2.8,1.9c0.8,0.8,1.4,1.7,1.9,2.7c0.5,1,0.8,2.1,0.8,3.3V248.8z"/>
		<path class="st0" d="M339.7,230.6c-0.3,0.2-0.5,0.4-0.7,0.7c-0.2,0.3-0.2,0.6-0.2,1v32c0,0.7,0.2,1.2,0.5,1.6
			c0.4,0.4,1,0.6,1.8,0.6h6.5c0.3,0,0.5,0,0.8-0.1c0.2-0.1,0.5-0.2,0.7-0.3c0.2-0.2,0.4-0.4,0.6-0.7c0.1-0.3,0.2-0.6,0.2-1v-18.6
			c0.1-0.9,0.3-1.7,0.7-2.4c0.4-0.7,0.9-1.4,1.5-1.9c0.6-0.5,1.3-1,2-1.3c0.7-0.3,1.4-0.5,2.1-0.5c0.8,0,1.6,0.2,2.4,0.5
			c0.8,0.3,1.5,0.8,2.1,1.3c0.6,0.6,1.1,1.2,1.5,1.9c0.4,0.7,0.6,1.5,0.6,2.3v18.6c0,0.8,0.2,1.3,0.5,1.6c0.3,0.3,0.9,0.4,1.7,0.4
			h6.6c0.7,0,1.2-0.2,1.5-0.6c0.3-0.4,0.5-0.9,0.5-1.6v-18.7c0-2.2-0.3-4.3-0.9-6.2c-0.6-1.9-1.5-3.6-2.7-5.1
			c-1.2-1.4-2.6-2.6-4.3-3.4c-1.7-0.8-3.6-1.3-5.8-1.3c-1.5,0-2.9,0.2-4.1,0.5c-1.2,0.3-2.3,0.8-3.3,1.3c-0.9,0.5-1.7,1.1-2.4,1.7
			c-0.6,0.6-1.1,1.2-1.4,1.8l-0.6-2.5c-0.1-0.3-0.2-0.6-0.3-0.8c-0.1-0.3-0.2-0.5-0.4-0.7c-0.2-0.2-0.4-0.4-0.6-0.5
			c-0.2-0.1-0.5-0.2-0.9-0.2h-4.3c-0.2,0-0.5,0-0.8,0.1c-0.3,0.1-0.5,0.2-0.8,0.4L339.7,230.6z"/>
		<path class="st0" d="M414,242.3c-0.4-1.4-1-2.8-1.8-4.1c-0.8-1.3-1.7-2.4-2.8-3.5c-1.1-1.1-2.3-2-3.6-2.7
			c-1.3-0.8-2.7-1.4-4.2-1.8c-1.5-0.4-3-0.6-4.6-0.6c-1.7,0-3.4,0.2-4.9,0.7c-1.6,0.5-3,1.1-4.3,1.9c-1.3,0.8-2.5,1.8-3.6,3
			c-1.1,1.2-2,2.4-2.7,3.8c-0.8,1.4-1.3,2.8-1.7,4.4c-0.4,1.6-0.6,3.2-0.6,4.9c0,2.7,0.5,5.2,1.5,7.5c1,2.3,2.4,4.3,4.2,6
			s3.8,3,6.1,4c2.3,1,4.8,1.4,7.4,1.4c2.3,0,4.6-0.4,6.7-1.3c2.1-0.9,4-2.1,5.7-3.6c0.3-0.2,0.5-0.5,0.7-0.7c0.2-0.3,0.3-0.6,0.3-1
			c0-0.2,0-0.4-0.1-0.6c-0.1-0.2-0.2-0.4-0.4-0.7l-3-3.4c-0.3-0.3-0.6-0.6-0.9-0.7c-0.3-0.2-0.5-0.3-0.8-0.3c-0.2,0-0.5,0.1-0.7,0.2
			c-0.2,0.1-0.5,0.3-0.8,0.6c-0.3,0.3-0.8,0.7-1.4,1c-0.6,0.3-1.2,0.6-1.9,0.8c-0.7,0.2-1.4,0.4-2.1,0.6c-0.7,0.1-1.4,0.2-2.1,0.2
			c-0.8,0-1.6-0.1-2.4-0.3c-0.9-0.2-1.7-0.6-2.4-1c-0.8-0.5-1.4-1.1-2-2c-0.6-0.8-1-1.8-1.2-3.1h20.6c1.2,0,2.1-0.1,2.7-0.2
			c0.6-0.1,1.1-0.4,1.3-0.8c0.3-0.4,0.4-0.9,0.4-1.5s0-1.4,0-2.4C414.7,244.6,414.6,244.2,414,242.3z M389.9,243.6
			c0.3-0.6,0.7-1.3,1.2-1.9c0.5-0.6,1-1.2,1.6-1.7c0.6-0.5,1.3-0.9,2-1.2c0.7-0.3,1.4-0.4,2.2-0.4c1,0,1.9,0.1,2.7,0.4
			c0.8,0.3,1.5,0.6,2.1,1.1c0.6,0.5,1.1,1,1.6,1.7c0.5,0.6,0.9,1.3,1.3,2.1H389.9z"/>
		<path class="st0" d="M423.9,230.2h-6.2c-1.5,0-2.2,0.7-2.2,2.2v5.5c0,1.5,0.7,2.3,2.2,2.3h6.2l0,24.1c0,1.5,0.7,2.2,2.2,2.2h6.5
			c0.7,0,1.3-0.2,1.7-0.6c0.4-0.4,0.6-0.9,0.6-1.6l0-24.1h7.2c0.6,0,1.1-0.2,1.5-0.6c0.4-0.4,0.6-1,0.6-1.8v-5.5
			c0-0.7-0.2-1.3-0.6-1.6c-0.4-0.4-0.9-0.5-1.5-0.5h-7.2l0-7.9c0-0.7-0.1-1.2-0.4-1.6c-0.2-0.4-0.7-0.6-1.4-0.6h-0.2
			c-0.1,0-0.2,0-0.3,0l-6.5,2.3c-0.7,0.3-1.3,0.5-1.7,0.8c-0.4,0.3-0.6,0.7-0.6,1.3L423.9,230.2z"/>
	</g>
	<path class="st0" d="M55.6,248.3V205c0-11.2,11.7-18.4,21.4-13.1l5.1,2.8l6.1,28.2c1.5,7.1-2.3,14.2-9,16.7L55.6,248.3z
		 M115.3,228.8l20.6-4.7l-43.8-24l6.9,19.5C101.4,226.5,108.4,230.4,115.3,228.8 M118.4,239.8c-6.7,2.5-10.5,9.6-9,16.7l6.6,30.4
		l43.1-23.7c10.2-5.6,10.2-20.6,0-26.2l-13.4-7.3L118.4,239.8z M98.7,259.6c-2.4-6.8-9.4-10.7-16.3-9.2l-26.8,6.1v38.7
		c0,11.2,11.7,18.4,21.4,13.1l32.6-17.9L98.7,259.6z"/>
</g>
</svg>
