<svg width="230" height="230" viewBox="0 0 230 230" fill="none" xmlns="http://www.w3.org/2000/svg">
<g filter="url(#filter0_d_1_1056)">
<rect x="40" y="15" width="150" height="150" rx="40" fill="url(#paint0_linear_1_1056)"/>
<mask id="mask0_1_1056" style="mask-type:alpha" maskUnits="userSpaceOnUse" x="40" y="15" width="150" height="150">
<rect x="40" y="15" width="150" height="150" rx="40" fill="white"/>
</mask>
<g mask="url(#mask0_1_1056)">
<g filter="url(#filter1_f_1_1056)">
<rect x="176.875" y="131.875" width="83.3333" height="9.58333" rx="4.79167" transform="rotate(-90 176.875 131.875)" fill="white"/>
</g>
<g filter="url(#filter2_f_1_1056)">
<rect x="176.875" y="64.792" width="16.25" height="9.58333" rx="4.79167" transform="rotate(-90 176.875 64.792)" fill="white"/>
</g>
<g filter="url(#filter3_f_1_1056)">
<rect x="43.5414" y="131.875" width="83.3333" height="9.58333" rx="4.79167" transform="rotate(-90 43.5414 131.875)" fill="white"/>
</g>
<g filter="url(#filter4_f_1_1056)">
<rect x="43.5414" y="64.792" width="16.25" height="9.58333" rx="4.79167" transform="rotate(-90 43.5414 64.792)" fill="white"/>
</g>
<g filter="url(#filter5_f_1_1056)">
<rect x="61.6661" y="24.167" width="106.667" height="12.0833" rx="6.04167" fill="white"/>
</g>
</g>
<g clip-path="url(#clip0_1_1056)">
<path d="M115 89.4803L120.208 101.751C120.208 103.151 119.66 104.493 118.683 105.483C117.706 106.473 116.381 107.029 115 107.029C113.619 107.029 112.294 106.473 111.317 105.483C110.34 104.493 109.792 103.151 109.792 101.751L115 89.4803ZM148.854 56.3887H81.1458C80.4551 56.3887 79.7927 56.6667 79.3044 57.1616C78.816 57.6565 78.5416 58.3277 78.5416 59.0276V66.9442C78.5416 67.6441 78.816 68.3153 79.3044 68.8102C79.7927 69.3051 80.4551 69.5831 81.1458 69.5831H148.854C149.545 69.5831 150.207 69.3051 150.696 68.8102C151.184 68.3153 151.458 67.6441 151.458 66.9442V59.0276C151.458 58.3277 151.184 57.6565 150.696 57.1616C150.207 56.6667 149.545 56.3887 148.854 56.3887ZM146.25 111.805V72.222H115C121.216 72.222 127.177 74.7242 131.573 79.1782C135.968 83.6322 138.437 89.6731 138.437 95.972V111.805H146.25ZM115 77.4998C110.165 77.4998 105.529 79.446 102.11 82.9102C98.6914 86.3744 96.7708 91.0729 96.7708 95.972V111.805H115C112.237 111.805 109.588 110.693 107.634 108.714C105.681 106.734 104.583 104.049 104.583 101.25C104.587 100.888 104.658 100.53 104.792 100.194L112.604 81.722C112.804 81.246 113.138 80.8401 113.564 80.5548C113.99 80.2695 114.489 80.1173 115 80.1173C115.511 80.1173 116.01 80.2695 116.436 80.5548C116.862 80.8401 117.196 81.246 117.396 81.722L125.208 100.194C125.342 100.53 125.413 100.888 125.417 101.25C125.417 104.049 124.319 106.734 122.366 108.714C120.412 110.693 117.763 111.805 115 111.805H133.229V95.972C133.229 91.0729 131.309 86.3744 127.89 82.9102C124.471 79.446 119.835 77.4998 115 77.4998ZM83.75 111.805H91.5625V95.972C91.5625 89.6731 94.0318 83.6322 98.4271 79.1782C102.823 74.7242 108.784 72.222 115 72.222H83.75V111.805ZM148.854 114.444H81.1458C80.4551 114.444 79.7927 114.722 79.3044 115.217C78.816 115.712 78.5416 116.383 78.5416 117.083V127.639C78.5416 128.339 78.816 129.01 79.3044 129.505C79.7927 130 80.4551 130.278 81.1458 130.278H148.854C149.545 130.278 150.207 130 150.696 129.505C151.184 129.01 151.458 128.339 151.458 127.639V117.083C151.458 116.383 151.184 115.712 150.696 115.217C150.207 114.722 149.545 114.444 148.854 114.444Z" fill="url(#paint1_linear_1_1056)"/>
</g>
</g>
<defs>
<filter id="filter0_d_1_1056" x="0" y="0" width="230" height="230" filterUnits="userSpaceOnUse" color-interpolation-filters="sRGB">
<feFlood flood-opacity="0" result="BackgroundImageFix"/>
<feColorMatrix in="SourceAlpha" type="matrix" values="0 0 0 0 0 0 0 0 0 0 0 0 0 0 0 0 0 0 127 0" result="hardAlpha"/>
<feOffset dy="25"/>
<feGaussianBlur stdDeviation="20"/>
<feColorMatrix type="matrix" values="0 0 0 0 0 0 0 0 0 0 0 0 0 0 0 0 0 0 0.1 0"/>
<feBlend mode="normal" in2="BackgroundImageFix" result="effect1_dropShadow_1_1056"/>
<feBlend mode="normal" in="SourceGraphic" in2="effect1_dropShadow_1_1056" result="shape"/>
</filter>
<filter id="filter1_f_1_1056" x="138.819" y="10.4856" width="85.6952" height="159.445" filterUnits="userSpaceOnUse" color-interpolation-filters="sRGB">
<feFlood flood-opacity="0" result="BackgroundImageFix"/>
<feBlend mode="normal" in="SourceGraphic" in2="BackgroundImageFix" result="shape"/>
<feGaussianBlur stdDeviation="19.028" result="effect1_foregroundBlur_1_1056"/>
</filter>
<filter id="filter2_f_1_1056" x="138.819" y="10.486" width="85.6952" height="92.3619" filterUnits="userSpaceOnUse" color-interpolation-filters="sRGB">
<feFlood flood-opacity="0" result="BackgroundImageFix"/>
<feBlend mode="normal" in="SourceGraphic" in2="BackgroundImageFix" result="shape"/>
<feGaussianBlur stdDeviation="19.028" result="effect1_foregroundBlur_1_1056"/>
</filter>
<filter id="filter3_f_1_1056" x="5.48544" y="10.4856" width="85.6952" height="159.445" filterUnits="userSpaceOnUse" color-interpolation-filters="sRGB">
<feFlood flood-opacity="0" result="BackgroundImageFix"/>
<feBlend mode="normal" in="SourceGraphic" in2="BackgroundImageFix" result="shape"/>
<feGaussianBlur stdDeviation="19.028" result="effect1_foregroundBlur_1_1056"/>
</filter>
<filter id="filter4_f_1_1056" x="5.48544" y="10.486" width="85.6952" height="92.3619" filterUnits="userSpaceOnUse" color-interpolation-filters="sRGB">
<feFlood flood-opacity="0" result="BackgroundImageFix"/>
<feBlend mode="normal" in="SourceGraphic" in2="BackgroundImageFix" result="shape"/>
<feGaussianBlur stdDeviation="19.028" result="effect1_foregroundBlur_1_1056"/>
</filter>
<filter id="filter5_f_1_1056" x="23.6102" y="-13.889" width="182.779" height="88.1953" filterUnits="userSpaceOnUse" color-interpolation-filters="sRGB">
<feFlood flood-opacity="0" result="BackgroundImageFix"/>
<feBlend mode="normal" in="SourceGraphic" in2="BackgroundImageFix" result="shape"/>
<feGaussianBlur stdDeviation="19.028" result="effect1_foregroundBlur_1_1056"/>
</filter>
<linearGradient id="paint0_linear_1_1056" x1="40" y1="15" x2="40" y2="165" gradientUnits="userSpaceOnUse">
<stop stop-color="#F7F7F7"/>
<stop offset="1" stop-color="#F3F3F3"/>
</linearGradient>
<linearGradient id="paint1_linear_1_1056" x1="115" y1="56.3887" x2="115" y2="130.278" gradientUnits="userSpaceOnUse">
<stop stop-color="#FF002E"/>
<stop offset="1" stop-color="#FF3E3E"/>
</linearGradient>
<clipPath id="clip0_1_1056">
<rect x="73.3333" y="51.1111" width="83.3333" height="105.556" rx="40" fill="white"/>
</clipPath>
</defs>
</svg>
